<svg xmlns="http://www.w3.org/2000/svg" viewBox="0 0 430 880" font-family="Helvetica, Arial, sans-serif">
  <!-- 縦長アプリ画面のプレースホルダ(ニュートラルグレー) -->
  <rect width="430" height="880" fill="#f4f2ef"/>
  <rect x="0" y="0" width="430" height="120" fill="#e6e2dc"/>
  <circle cx="52" cy="72" r="22" fill="#b5afa6"/>
  <rect x="92" y="56" width="180" height="14" rx="7" fill="#b5afa6"/>
  <rect x="92" y="80" width="120" height="10" rx="5" fill="#cfc9c0"/>
  <rect x="28" y="160" width="374" height="200" rx="14" fill="#ffffff"/>
  <rect x="52" y="188" width="200" height="14" rx="7" fill="#c5bfb6"/>
  <rect x="52" y="216" width="320" height="10" rx="5" fill="#ddd8d0"/>
  <rect x="52" y="238" width="280" height="10" rx="5" fill="#ddd8d0"/>
  <circle cx="80" cy="310" r="20" fill="#e2ddd5"/>
  <rect x="116" y="300" width="140" height="12" rx="6" fill="#d5cfc6"/>
  <rect x="28" y="392" width="374" height="200" rx="14" fill="#ffffff"/>
  <rect x="52" y="420" width="240" height="14" rx="7" fill="#c5bfb6"/>
  <rect x="52" y="448" width="320" height="10" rx="5" fill="#ddd8d0"/>
  <rect x="52" y="470" width="250" height="10" rx="5" fill="#ddd8d0"/>
  <circle cx="80" cy="542" r="20" fill="#e2ddd5"/>
  <rect x="116" y="532" width="170" height="12" rx="6" fill="#d5cfc6"/>
  <rect x="28" y="624" width="374" height="140" rx="14" fill="#ffffff"/>
  <rect x="52" y="652" width="210" height="14" rx="7" fill="#c5bfb6"/>
  <rect x="52" y="680" width="300" height="10" rx="5" fill="#ddd8d0"/>
  <rect x="0" y="796" width="430" height="84" fill="#e6e2dc"/>
  <circle cx="90" cy="838" r="14" fill="#b5afa6"/>
  <circle cx="215" cy="838" r="14" fill="#8f8a82"/>
  <circle cx="340" cy="838" r="14" fill="#b5afa6"/>
  <text x="215" y="500" fill="#a9a49d" font-size="22" text-anchor="middle" opacity="0">placeholder: app</text>
</svg>
